<svg xmlns="http://www.w3.org/2000/svg" viewBox="0 0 64 64"><path d="M20.625 3.5H13A9.51081 9.51081 0 003.5 13v7.625a9.51081 9.51081 0 009.5 9.5H26.625a3.50424 3.50424 0 003.5-3.5V13A9.51081 9.51081 0 0020.625 3.5zm6.5 23.125a.501.501 0 01-.5.5H13a6.50753 6.50753 0 01-6.5-6.5V13A6.50753 6.50753 0 0113 6.5h7.625a6.50753 6.50753 0 016.5 6.5zM51 3.5H43.375a9.51081 9.51081 0 00-9.5 9.5V26.625a3.50424 3.50424 0 003.5 3.5H51a9.51081 9.51081 0 009.5-9.5V13A9.51081 9.51081 0 0051 3.5zm6.5 17.125a6.50753 6.50753 0 01-6.5 6.5H37.375a.501.501 0 01-.5-.5V13a6.50753 6.50753 0 016.5-6.5H51A6.50753 6.50753 0 0157.5 13zM26.625 33.875H13a9.51081 9.51081 0 00-9.5 9.5V51A9.51081 9.51081 0 0013 60.5h7.625a9.51081 9.51081 0 009.5-9.5V37.375A3.50424 3.50424 0 0026.625 33.875zM27.125 51a6.50753 6.50753 0 01-6.5 6.5H13A6.50753 6.50753 0 016.5 51V43.375a6.50753 6.50753 0 016.5-6.5H26.625a.501.501 0 01.5.5zM51 33.875H37.375a3.50424 3.50424 0 00-3.5 3.5V51a9.51081 9.51081 0 009.5 9.5H51A9.51081 9.51081 0 0060.5 51V43.375A9.51081 9.51081 0 0051 33.875zM57.5 51A6.50753 6.50753 0 0151 57.5H43.375a6.50753 6.50753 0 01-6.5-6.5V37.375a.501.501 0 01.5-.5H51a6.50753 6.50753 0 016.5 6.5z"/></svg>