<svg xmlns="http://www.w3.org/2000/svg" viewBox="0 0 512 512"><g fill="none" stroke="#000" stroke-linecap="round" stroke-linejoin="round" stroke-miterlimit="10" stroke-width="10"><path d="m352.238 353.234 88.682-36.59c10.092-4.431 23.048-1.295 28.818 6.955 5.768 8.247 2.927 19.872-6.324 25.83L306.053 452.723c-9.243 5.949-25.605 8.896-36.354 6.554l-142.82-33.139"/><path d="M126.882 318.589h37.143c22.338 0 40.892 3.306 51.874 7.346l.486.194c10.974 4.035 29.526 7.346 41.232 7.346H331c11.352 0 20.711 8.796 21.239 19.762.019.32.027.65.027.981 0 1.36-.142 2.687-.398 3.992-1.921 9.514-10.565 16.744-20.868 16.744h-73.383s-19.146-1.06-34.741 12.416"/><path d="M92.835 455.22h22.377c6.448 0 11.673-5.224 11.673-11.676V304.869c0-6.449-5.225-11.673-11.673-11.673H92.835"/><path d="M41.273 280.55h51.562v189.708H41.273z"/></g><path fill="none" stroke="#000" stroke-linecap="round" stroke-linejoin="round" stroke-miterlimit="10" stroke-width="10" d="M256.999 115.573V41.742M228.672 123.376V67.362M200.34 139.23V88.707M313.656 139.23V88.707M285.33 123.376V67.362M279.388 180.305h-27.399c-9.598 0-17.379 7.777-17.379 17.38 0 9.594 7.778 17.377 17.379 17.377h10.026c9.597 0 17.373 7.782 17.373 17.38 0 9.597-7.776 17.378-17.373 17.378H234.61M257.001 180.304v-19.522M257.001 269.347v-19.526"/><circle cx="257" cy="215.056" r="73.813" fill="none" stroke="#000" stroke-linecap="round" stroke-linejoin="round" stroke-miterlimit="10" stroke-width="10"/></svg>