<svg id="Capa_1" enable-background="new 0 0 512 512" viewBox="0 0 512 512" xmlns="http://www.w3.org/2000/svg"><g><path d="m478.32 129c-24.41 65.39-90.9 154.65-214.77 154.65-114.76 0-195.83-67.4-229.87-154.65 44.12-77.07 127.16-129 222.32-129s178.2 51.93 222.32 129z" fill="#228cff"/><path d="m512 256c0 83.52-40 157.7-101.89 204.42h-20.97l.35 14.06c-38.87 23.8-84.58 37.52-133.49 37.52-141.38 0-256-114.62-256-256 0-46.22 12.25-89.57 33.68-127 44.12 77.07 127.16 129 222.32 129 19.48 0 38.44-2.17 56.67-6.3 6.04-1.36 12-2.94 17.86-4.73 62.99-19.13 115.7-61.9 147.79-117.97 21.43 37.43 33.68 80.78 33.68 127z" fill="#0070ff"/><path d="m180.92 90.76 75.08 110.609-75.08 96.981h-31.53c-3.67 0-7.29-.19-10.87-.56-2.49-.26-4.95.59-6.75 2.32-17.55 16.99-41.45 27.43-67.8 27.43-7.27 0-14.35-.8-21.18-2.31 20.59-4.56 38.72-15.63 52.15-30.94 3.34-3.81 2.47-9.74-1.79-12.5-14.31-9.24-26.2-21.89-34.51-36.82-8.32-14.93-13.05-32.12-13.05-50.42 0-57.33 46.47-103.79 103.8-103.79z" fill="#fff"/><path d="m321.87 194.55c0 57.34-46.47 103.8-103.79 103.8h-37.16v-207.59h37.16c28.66 0 54.61 11.62 73.39 30.4 18.78 18.79 30.4 44.73 30.4 73.39z" fill="#e0f8fc"/><path d="m312.67 246.97 58.981 107.912-58.981 99.688h-35.74c-57.33 0-103.8-46.47-103.8-103.8 0-28.67 11.62-54.61 30.4-73.41 18.79-18.77 44.73-30.39 73.4-30.39z" fill="#ffe702"/><path d="m449.41 350.77c0 18.3-4.73 35.49-13.05 50.41-8.31 14.92-20.2 27.59-34.5 36.84-4.26 2.75-5.14 8.68-1.79 12.5 3.1 3.54 6.46 6.85 10.04 9.9-6.63 5.02-13.51 9.71-20.62 14.06-9.74-4.59-18.6-10.75-26.25-18.14-1.8-1.75-4.27-2.61-6.76-2.35-3.57.39-7.19.58-10.86.58h-32.95v-207.6h32.95c57.32 0 103.79 46.48 103.79 103.8z" fill="#ffbf03"/><g fill="#3b2e8e"><g><path d="m312.67 412.79 5.454 10.097-5.454 9.073c-5.28 0-9.58-4.3-9.58-9.58 0-5.29 4.3-9.59 9.58-9.59z"/><path d="m312.67 285.57 8.544 12.019-8.544 6.981c-11.1 0-20.63 8.27-22.17 19.25-.14 1.04-.21 2.1-.21 3.14v2h-19v-2c0-1.91.13-3.85.4-5.76 2.83-20.29 20.44-35.61 40.98-35.63z"/><path d="m303.17 349.34h9.5l6.312 26.002-6.312 18.828h-9.5z"/></g><path d="m180.92 169.05 5.972-15.804-5.972-13.406h-8.16l-40.67 106.81 16.82 6.4 9.78-25.67h22.23l7.582-8.104-7.582-9.896h-15.38l15.37-40.36z"/></g></g><g fill="#220f7c"><path d="m322.26 422.38c0 5.28-4.3 9.58-9.59 9.58v-19.17c5.29 0 9.59 4.3 9.59 9.59z"/><path d="m342.68 355.45c-5.62 5.92-12.69 9.98-20.51 11.81v26.91h-9.5v-44.83c6.2 0 11.96-2.48 16.24-6.99 4.27-4.49 6.44-10.38 6.11-16.59-.59-11.65-10.21-20.95-21.88-21.18l-.47-.01v-19c.3 0 .59 0 .89.01 21.54.42 39.32 17.63 40.44 39.18.6 11.48-3.42 22.38-11.32 30.69z"/><path d="m229.46 246.69-16.84 6.35-9.69-25.66h-22.01v-18h15.22l-15.22-40.33v-29.21l8.21-.01z"/></g></svg>