<svg xmlns="http://www.w3.org/2000/svg" data-name="Layer 3" viewBox="0 0 24 24"><path d="M13.5,20h-7A1.5,1.5,0,0,1,5,18.5V9H6.5A2.5,2.5,0,0,0,9,6.5V5h6.5A1.5,1.5,0,0,1,17,6.5v4a.5.5,0,0,0,1,0v-4A2.5,2.5,0,0,0,15.5,4h-7a.5.5,0,0,0-.354.147l-4,4A.5.5,0,0,0,4,8.5v10A2.5,2.5,0,0,0,6.5,21h7a.5.5,0,0,0,0-1ZM6.5,8H5.707L8,5.707V6.5A1.5,1.5,0,0,1,6.5,8Zm9-1a.5.5,0,0,1-.5.5H13a.5.5,0,0,1,0-1h2A.5.5,0,0,1,15.5,7ZM15,9.5H12a.5.5,0,0,1,0-1h3a.5.5,0,0,1,0,1Zm-.5,4H7a.5.5,0,0,1,0-1h7.5a.5.5,0,0,1,0,1Zm-1.5,2H7a.5.5,0,0,1,0-1h6a.5.5,0,0,1,0,1Zm7.854-1.354a.5.5,0,0,0-.708,0l-.56.56A3.458,3.458,0,0,0,18,14.051V13.5h.5a.5.5,0,0,0,0-1h-2a.5.5,0,0,0,0,1H17v.551a3.51,3.51,0,1,0,3.293,1.363l.561-.56A.5.5,0,0,0,20.854,14.146ZM17.5,20A2.5,2.5,0,1,1,20,17.5,2.5,2.5,0,0,1,17.5,20Zm.5-4v1.5a.5.5,0,0,1-1,0V16a.5.5,0,0,1,1,0Zm-6,.5a.5.5,0,0,1,0,1H7a.5.5,0,0,1,0-1Z"/></svg>