<svg xmlns="http://www.w3.org/2000/svg" enable-background="new 0 0 512 512" viewBox="0 0 512 512"><path d="M275.237 223.762c0 42.82 33.934 77.992 76.877 79.166 45.872 1.043 81.392-38.412 81.392-82.188v-4.41c7.723-15.934 12.137-33.365 12.137-49.934 0-45.933-34.983-74.472-91.287-74.472s-91.287 28.539-91.287 74.472c0 16.582 4.438 34.024 12.169 49.973V223.762zM417.51 220.74c0 35.264-28.532 66.895-64.959 66.193-34.277-.927-61.319-29.013-61.319-63.17v-19.706c0-14.137 11.497-25.634 25.634-25.634h75.011c14.137 0 25.634 11.497 25.634 25.634V220.74zM354.356 107.919c22.634 0 75.292 5.702 75.292 58.476 0 5.594-.637 11.339-1.796 17.097-7.186-12.517-20.534-21.064-35.974-21.064h-75.011c-15.422 0-28.757 8.527-35.95 21.02-1.159-5.744-1.852-11.473-1.852-17.052C279.064 112.137 336.696 107.919 354.356 107.919zM350.614 325.562c-88.944 0-161.307 57.328-161.307 127.785v7.639c0 2.882 1.546 5.538 4.054 6.959 93.042 52.801 219.977 53.65 314.515 0 2.507-1.421 4.054-4.077 4.054-6.959v-7.639C511.929 376.261 431.303 325.562 350.614 325.562zM495.934 456.284c-87.133 47.461-203.502 47.458-290.631 0v-2.937c0-61.639 65.185-111.789 145.311-111.789 71.106 0 145.319 43.679 145.319 111.789V456.284zM220.666 212.828c7.873-2.101 13.168-8.99 13.168-17.144V69.031c0-35.787-29.109-64.896-64.888-64.896H33.257c-18.3 0-33.186 14.887-33.186 33.178V99.57c0 35.787 29.109 64.896 64.896 64.896h112.711l23.04 40.059C204.786 211.604 212.823 214.935 220.666 212.828zM182.302 148.47H64.967c-26.961 0-48.901-21.939-48.901-48.901V37.314c0-9.474 7.709-17.183 17.191-17.183h135.689c26.961 0 48.893 21.939 48.893 48.901v126.652c0 .367 0 1.343-1.297 1.687-1.257.398-1.773-.492-1.953-.82l-25.352-44.074C187.808 150.001 185.16 148.47 182.302 148.47z"/><path d="M122.592 114.902c-2.952-2.952-8.31-2.952-11.27 0-3.304 3.304-2.909 8.534 0 11.278 3.263 3.28 8.329 3.117 11.27 0C126.058 122.909 125.495 117.524 122.592 114.902zM122.381 40.586c-16.335-3.369-31.038 9.016-31.038 25.04 0 4.421 3.577 7.998 7.998 7.998s7.998-3.577 7.998-7.998c0-5.859 5.374-10.714 11.778-9.38 8.887 1.852 10.274 14.461 1.679 18.214-7.178 3.132-11.817 10.146-11.817 17.87 0 4.421 3.577 7.998 7.998 7.998s7.998-3.577 7.998-7.998c0-1.382.851-2.609 2.226-3.21C150.075 79.098 146.45 45.621 122.381 40.586z"/></svg>